<svg xmlns="http://www.w3.org/2000/svg" viewBox="0 0 224 256">
  <path d="M208 52.2l-80.7-48a30.4 30.4 0 00-31.1 0l-80.7 48A32.2 32.2 0 000 79.9v95.7a32.2 32.2 0 0015.6 27.7l80.6 47.9a30.4 30.4 0 0031.1 0l80.6-48a32.2 32.2 0 0015.6-27.6V79.9A32.2 32.2 0 00208 52.2z" fill="#FFF"/>
  <path d="M208.4 52.3l-80.8-48a30.4 30.4 0 00-31.2 0l-80.8 48A32.2 32.2 0 000 80v96a32.2 32.2 0 0015.6 27.7l80.8 48a30.5 30.5 0 0031.2 0l80.8-48A32.2 32.2 0 00224 176V80a32.2 32.2 0 00-15.6-27.7zM99.2 246.8l-80.8-48A26.6 26.6 0 015.6 176V80a26.6 26.6 0 0112.8-22.8l80.8-48a25 25 0 0125.6 0l80.7 48A26.4 26.4 0 01218 75.7c-2.7-5.7-8.7-7.3-15.7-3.3l-76.4 47.4c-9.6 5.5-16.6 11.8-16.6 23.3v94.2c0 6.8 2.8 11.3 7 12.6a24.8 24.8 0 01-4.2.4 25 25 0 01-12.8-3.5z" fill="#2F3A3E"/>
  <path d="M187 185l-20 12a1.5 1.5 0 00-1 1.4v5.3c0 .6.4.9 1 .6l20.4-12.4c.5-.4.7-1 .6-1.7v-4.6c0-.6-.5-.8-1-.5z" fill="#3AB14A"/>
  <path d="M144.3 140.8c.6-.3 1.1 0 1.2 1v7a13 13 0 017.7-1c.5.2.7.8.6 1.6l-1.6 6.2a2.6 2.6 0 01-.7 1.2 1.6 1.6 0 01-.4.3 1 1 0 01-.6.1 10.2 10.2 0 00-7.4 1.2 9.3 9.3 0 00-5.5 8.3c0 3.2 1.6 4.1 7.2 4.2 7.5.1 10.7 3.4 10.8 10.9a26.7 26.7 0 01-9.9 20.1l.1 6.9a2.5 2.5 0 01-1.2 2l-4 2.4c-.7.4-1.2 0-1.2-.9v-6.7c-3.5 1.4-7 1.8-9.3.9-.4-.2-.6-.8-.4-1.6l1.4-6.2a2.6 2.6 0 01.8-1.3l.3-.2a.8.8 0 01.7 0c2.9.7 6 .3 8.6-1.1a11.2 11.2 0 006.3-9.7c0-3.5-2-5-6.5-5-5.9 0-11.3-1.1-11.4-9.7a25 25 0 019.5-19.1l-.3-7a2.5 2.5 0 011.1-2.2l4-2.6z" fill="#FFF"/>
  <path fill="rgba(0, 0, 0, 0)" d="M0 0h224v256H0z"/>
</svg>