<svg xmlns="http://www.w3.org/2000/svg" viewBox="0 0 35.355 36.204">
  <path fill="#fff" d="m17.678 0 17.677 16.263-17.677 19.94L0 16.264Z"/>
  <path d="m17.47 31.082-3.579-3.937a.319.319 0 0 1 .009-.427l.174-.183a.267.267 0 0 1 .396 0l.727.794a.268.268 0 0 0 .398 0l.173-.184a.318.318 0 0 0 .004-.427l-.726-.788a.313.313 0 0 1 .006-.422l.171-.18a.31.31 0 0 0 .006-.42l-.166-.179a.307.307 0 0 1 .006-.416l.17-.178c.11-.114.112-.3.006-.414l-.165-.177a.302.302 0 0 1 .006-.41l.169-.176a.3.3 0 0 0 .005-.409l-.708-.754a.294.294 0 0 1 .007-.403l.726-.744c.108-.11.28-.11.385 0l.163.17a.294.294 0 0 1-.004.402l-.168.172a.294.294 0 0 0-.004.403l.164.174c.106.112.28.112.387 0l1.273-1.321a.265.265 0 0 1 .385 0l.165.171c.106.11.279.11.384 0l.164-.171a.265.265 0 0 1 .385 0l.722.744c.107.111.11.292.004.403l-.164.174a.297.297 0 0 0 .004.406l.168.174a.265.265 0 0 0 .389 0l.164-.174a.297.297 0 0 0-.006-.406l-.168-.174a.294.294 0 0 1-.006-.403l.163-.172a.292.292 0 0 0-.005-.401l-1.821-1.866a.264.264 0 0 0-.38 0l-.164.168a.264.264 0 0 1-.38 0l-.705-.726a.28.28 0 0 1 .002-.388l.704-.717a.275.275 0 0 0 0-.384l-.695-.708a.27.27 0 0 1 .002-.379l.695-.7a.266.266 0 0 0 0-.373l-1.21-1.22a.26.26 0 0 1 .002-.367l.159-.157a.261.261 0 0 1 .368 0l2.28 2.279a.268.268 0 0 1 .002.376l-.159.162a.27.27 0 0 0 .003.38l.162.162a.263.263 0 0 0 .375 0l.159-.163a.263.263 0 0 1 .375 0l.163.163a.273.273 0 0 1 .005.381l-.159.164a.275.275 0 0 0 .005.384l.164.165c.106.106.109.28.006.386l-.16.166a.263.263 0 0 1-.379 0l-.164-.166a.263.263 0 0 0-.378 0l-.161.166a.28.28 0 0 0 .003.388l.712.726a.264.264 0 0 0 .381 0l.161-.168a.264.264 0 0 1 .381 0l.166.168a.264.264 0 0 0 .381 0l.691-.726a.264.264 0 0 1 .38 0l.167.167a.264.264 0 0 0 .38 0l.157-.167a.264.264 0 0 1 .38 0l.168.167a.282.282 0 0 1 .012.391l-.686.73a.264.264 0 0 1-.382 0l-.168-.169a.264.264 0 0 0-.382 0l-.695.735a.29.29 0 0 0 .008.399l.168.17c.108.111.28.111.384 0l.695-.739a.264.264 0 0 1 .383 0l1.306 1.313c.11.111.117.292.014.403l-.16.174a.297.297 0 0 0 .014.406l.75.758a.302.302 0 0 1 .015.411l-.698.769a.266.266 0 0 1-.392 0l-.174-.178a.305.305 0 0 1-.013-.414l.162-.177a.302.302 0 0 0-.013-.41l-.745-.76a.297.297 0 0 1-.012-.405l.16-.174a.294.294 0 0 0-.01-.403l-.171-.172a.265.265 0 0 0-.386 0l-1.24 1.33a.3.3 0 0 0 .007.408l.17.175c.11.114.114.298.009.411l-.164.177a.305.305 0 0 0 .008.414l.745.773a.266.266 0 0 0 .394 0l.163-.179a.267.267 0 0 1 .393 0l.174.18a.31.31 0 0 1 .012.418l-1.82 2.002a.268.268 0 0 1-.398 0l-.174-.184a.268.268 0 0 0-.398 0l-.168.184a.268.268 0 0 1-.399 0l-.172-.184a.318.318 0 0 1-.005-.427l.168-.183a.316.316 0 0 0-.004-.424l-.741-.784a.267.267 0 0 0-.394 0l-.732.784a.267.267 0 0 1-.396 0l-.73-.784a.267.267 0 0 0-.395 0l-.17.18a.313.313 0 0 0-.004.422l1.298 1.4c.11.119.289.119.399 0l.17-.184a.268.268 0 0 1 .398 0l.172.184c.11.119.112.311.002.43l-.17.185c-.11.12-.11.313.001.433l.173.186c.111.12.112.316.002.436l-.172.188a.269.269 0 0 1-.402 0l-.173-.188a.269.269 0 0 0-.402 0l-.172.188a.33.33 0 0 0-.001.438l.75.82a.336.336 0 0 1 .001.445l-.173.192a.27.27 0 0 1-.407 0zm-5.613-6.174-1.24-1.364a.302.302 0 0 1 .016-.41l.75-.76a.266.266 0 0 1 .388 0l.16.175a.265.265 0 0 0 .389 0l.74-.754a.265.265 0 0 1 .387 0l.162.174c.104.112.1.293-.01.406l-1.314 1.346a.305.305 0 0 0-.012.414l.163.178c.105.115.1.301-.012.416l-.173.18a.266.266 0 0 1-.394 0zM9.712 22.55l-1.208-1.33a.292.292 0 0 1 .02-.4l1.889-1.866a.264.264 0 0 1 .38 0l.158.168a.285.285 0 0 1-.015.393l-.17.17a.287.287 0 0 0-.016.395l.158.17c.102.11.274.11.384 0l.17-.17c.11-.11.28-.11.383 0l.69.74a.29.29 0 0 1-.01.4l-.741.75a.265.265 0 0 1-.387 0l-.69-.75a.265.265 0 0 0-.386 0l-.172.173a.295.295 0 0 0-.017.403l.159.174a.297.297 0 0 1-.017.406l-.173.174a.265.265 0 0 1-.389 0zm-2.09-2.3-3.189-3.507c-.096-.105-.083-.276.029-.38l3.564-3.36a.261.261 0 0 1 .368 0l3.196 3.36c.1.104.094.275-.013.38L8.005 20.25c-.112.11-.284.11-.384 0zm9.106 8.314.172-.186a.324.324 0 0 0 .002-.433l-.17-.185a.268.268 0 0 0-.4 0l-.172.185a.324.324 0 0 0-.004.433l.17.186c.11.12.29.12.402 0zm-2.646-2.452-.166-.182a.313.313 0 0 1 .008-.421l.173-.18a.267.267 0 0 1 .394 0l.166.18a.313.313 0 0 1-.007.421l-.172.182a.267.267 0 0 1-.396 0zm-6.017-6.99 2.438-2.379a.273.273 0 0 0 .015-.38l-2.18-2.307a.262.262 0 0 0-.371 0L5.534 16.36c-.111.105-.123.276-.027.381l2.177 2.38c.1.108.27.108.381 0zm6.04 5.787-.165-.179a.307.307 0 0 1 .009-.416l.171-.178a.266.266 0 0 1 .392 0l.165.178a.307.307 0 0 1-.007.416l-.172.18a.267.267 0 0 1-.393 0zm-6.358-6.901-1.165-1.265c-.098-.105-.087-.276.023-.38l1.302-1.242a.262.262 0 0 1 .373 0l1.166 1.241a.273.273 0 0 1-.018.381l-1.303 1.265a.263.263 0 0 1-.378 0zm6.381 5.714-.164-.177a.302.302 0 0 1 .008-.41l.17-.176a.266.266 0 0 1 .39 0l.164.175a.302.302 0 0 1-.007.411l-.17.177a.266.266 0 0 1-.391 0zm-2.652-4.038-.158-.169a.285.285 0 0 1 .014-.393l.169-.168a.264.264 0 0 1 .38 0l.158.168a.285.285 0 0 1-.012.393l-.17.17a.263.263 0 0 1-.381 0zm6.394 5.225 1.282-1.364a.302.302 0 0 0-.004-.41l-1.281-1.339a.265.265 0 0 0-.387 0l-1.28 1.337a.302.302 0 0 0-.004.411l1.282 1.364a.267.267 0 0 0 .393 0zm-4.236-4.09-.694-.739a.287.287 0 0 1 .01-.396l.168-.169a.264.264 0 0 1 .382 0l.695.735a.29.29 0 0 1-.008.399l-.168.17a.265.265 0 0 1-.385 0zm3.844 2.903-.167-.177a.302.302 0 0 1 0-.41l.168-.176a.266.266 0 0 1 .389 0l.167.175a.302.302 0 0 1 .001.411l-.167.177a.266.266 0 0 1-.391 0zm-4.35-4.6-.159-.168a.282.282 0 0 1 .01-.39l.167-.168a.264.264 0 0 1 .38 0l.159.167a.282.282 0 0 1-.009.391l-.167.168a.264.264 0 0 1-.38 0zm8.137 6.99.166-.182a.313.313 0 0 0-.009-.421l-1.314-1.373a.266.266 0 0 0-.392 0l-.166.178a.307.307 0 0 0 .004.416l1.315 1.382a.267.267 0 0 0 .396 0zm-6.513-6.428-.695-.73a.282.282 0 0 1 .008-.39l1.265-1.273a.263.263 0 0 1 .377 0l.16.165a.277.277 0 0 1-.004.386l-.164.166a.28.28 0 0 0-.004.388l.7.726a.284.284 0 0 1-.004.393l-.165.17a.264.264 0 0 1-.382 0l-.162-.17a.264.264 0 0 0-.382 0l-.166.17a.264.264 0 0 1-.382 0zm-2.121-2.228-.157-.165a.275.275 0 0 1 .011-.384l.166-.164a.263.263 0 0 1 .376 0l.157.164a.275.275 0 0 1-.01.384l-.166.165a.263.263 0 0 1-.377 0zm1.079 0-.158-.165a.275.275 0 0 1 .009-.384l1.257-1.248a.263.263 0 0 1 .373 0l.687.703a.273.273 0 0 1-.004.381l-.163.164a.263.263 0 0 1-.376 0l-.16-.164a.263.263 0 0 0-.375 0l-.713.713a.263.263 0 0 1-.377 0zm-1.048-1.094-1.7-1.775a.264.264 0 0 1 .014-.372l.165-.16a.262.262 0 0 0 .014-.37l-.153-.157a.26.26 0 0 1 .014-.368l.164-.157a.261.261 0 0 1 .368 0l.662.683a.262.262 0 0 1-.011.37l-.164.159a.264.264 0 0 0-.012.372l1.189 1.233a.27.27 0 0 1-.01.38l-.165.162a.263.263 0 0 1-.375 0zM10.1 13.685l-.151-.158a.26.26 0 0 1 .016-.368l.165-.157a.261.261 0 0 1 .368 0l.151.157a.26.26 0 0 1-.015.368l-.165.158a.261.261 0 0 1-.37 0zm7.383 6.564-.164-.17a.287.287 0 0 1 0-.395l.164-.17a.264.264 0 0 1 .382 0l.164.17a.287.287 0 0 1 .001.395l-.164.17a.264.264 0 0 1-.383 0zm-7.838-8.131-.15-.155a.254.254 0 0 1 .018-.361l.163-.155a.26.26 0 0 1 .365 0l.15.155c.096.1.09.26-.016.36l-.164.156a.26.26 0 0 1-.366 0zm12.874 12.195-.745-.769a.302.302 0 0 1-.009-.41l.163-.176a.266.266 0 0 1 .39 0l.744.763c.112.114.117.3.012.414l-.162.178a.266.266 0 0 1-.392 0zm-8.76-9.032-1.189-1.226a.262.262 0 0 1 .01-.37l.164-.158a.26.26 0 0 0 .01-.368l-1.168-1.196a.253.253 0 0 1 .013-.361l.162-.155a.26.26 0 0 1 .364 0l.152.155c.098.1.261.1.365 0l.16-.154a.26.26 0 0 1 .365 0l.153.154c.098.1.094.26-.01.36l-.16.156a.255.255 0 0 0-.01.363l.667.678a.26.26 0 0 1-.009.368l-.162.158a.262.262 0 0 0-.008.37l.674.69c.1.104.098.271-.007.375l-.163.16a.262.262 0 0 1-.373 0zm-3.068-3.163-.15-.155a.253.253 0 0 1 .015-.361l.163-.155a.26.26 0 0 1 .364 0l.15.155c.098.1.092.26-.013.36l-.163.156a.26.26 0 0 1-.366 0zm4.134 3.163-.157-.161a.266.266 0 0 1 .006-.374l.162-.16a.264.264 0 0 0 .006-.372l-.674-.687a.26.26 0 0 1 .007-.368l.16-.157a.261.261 0 0 1 .369 0l.155.157a.26.26 0 0 0 .368 0l.16-.157a.261.261 0 0 1 .369 0l.156.157a.26.26 0 0 1-.004.368l-.16.158a.261.261 0 0 0-.004.37l.683.69c.102.104.1.271-.003.375l-.161.16a.262.262 0 0 1-.373 0l-.158-.16a.262.262 0 0 0-.373 0l-.162.16a.262.262 0 0 1-.372 0zm-.482-2.644-.154-.156a.255.255 0 0 1 .007-.363l.691-.67c.102-.1.105-.26.006-.36l-.663-.662a.26.26 0 0 0-.362 0l-.16.153a.26.26 0 0 1-.362 0l-.152-.153a.247.247 0 0 1 .01-.354l.159-.152a.245.245 0 0 0 .009-.352l-.151-.15a.243.243 0 0 1 .01-.351l.157-.15a.241.241 0 0 0 .009-.348l-.15-.149a.24.24 0 0 1 .01-.346l.156-.148a.26.26 0 0 1 .357 0l1.663 1.642a.245.245 0 0 1-.005.352l-.157.152a.247.247 0 0 0-.005.354l.667.663a.25.25 0 0 1-.004.358l-.158.155a.253.253 0 0 0-.004.36l.155.156c.1.1.099.263-.003.363l-.16.156a.26.26 0 0 1-.367 0l-.155-.156c-.1-.1-.264-.1-.367 0l-.16.156c-.103.1-.267.1-.367 0zm-2.535-2.565-.15-.152a.245.245 0 0 1 .013-.352l.69-.65a.26.26 0 0 1 .36 0l.15.149a.243.243 0 0 1-.01.35l-.691.655a.26.26 0 0 1-.362 0zm13.391 11.32-.172-.172a.292.292 0 0 1-.016-.401l.157-.171a.265.265 0 0 1 .385 0l.172.17c.111.111.12.29.018.402l-.158.172a.265.265 0 0 1-.386 0zm-3.938-3.937-.713-.713a.273.273 0 0 1-.006-.38l.158-.164a.27.27 0 0 0-.006-.379l-.163-.162a.268.268 0 0 1-.006-.376l1.196-1.226a.262.262 0 0 1 .37 0l.163.159c.106.102.11.269.01.372l-.155.16c-.1.103-.096.27.01.374l.163.16c.106.105.11.273.01.377l-.156.162a.27.27 0 0 0 .01.38l.717.707a.275.275 0 0 1 .01.384l-.156.165a.263.263 0 0 1-.378 0l-.166-.165a.263.263 0 0 0-.377 0l-.158.165a.263.263 0 0 1-.377 0zm-4.82-4.818-.155-.156c-.1-.1-.1-.263.002-.363l.158-.155a.26.26 0 0 1 .366 0l.156.155c.101.1.1.263-.001.363l-.158.156c-.102.1-.267.1-.367 0zm9.86 8.755-.173-.172a.292.292 0 0 1-.018-.401l.156-.171a.266.266 0 0 1 .385 0l.173.17c.112.111.121.29.02.402l-.156.172a.265.265 0 0 1-.386 0zm-1.15-1.143-1.304-1.296a.282.282 0 0 1-.013-.39l.157-.168c.1-.107.27-.107.38 0l1.304 1.288c.11.11.118.287.017.396l-.157.17a.264.264 0 0 1-.383 0zm-6.073-6.035-.16-.16a.261.261 0 0 1-.003-.37l.679-.682a.261.261 0 0 1 .368 0l.16.157a.26.26 0 0 1 .005.368l-.679.687a.262.262 0 0 1-.37 0zm-1.061-1.055-.683-.678a.255.255 0 0 1 0-.363l.158-.155a.26.26 0 0 1 .366 0l.682.674c.102.1.103.264.002.365l-.157.157a.261.261 0 0 1-.368 0zm-1.568-1.557-.155-.155a.25.25 0 0 1 .003-.358l.157-.154a.26.26 0 0 1 .364 0l.155.154c.1.099.1.26-.002.358l-.157.155a.26.26 0 0 1-.365 0zm10.894 8.647-3.572-3.507a.273.273 0 0 1-.013-.38l3.197-3.36a.261.261 0 0 1 .368 0l3.564 3.36c.111.104.124.275.028.38l-3.189 3.507c-.1.11-.271.11-.383 0zm-4.512-4.43-.165-.162a.268.268 0 0 1-.01-.376l.155-.161a.262.262 0 0 1 .372 0l.165.16a.268.268 0 0 1 .012.377l-.155.162a.262.262 0 0 1-.374 0zm-2.174-2.134-.16-.158a.26.26 0 0 1-.007-.368l.155-.157a.261.261 0 0 1 .368 0l.161.157a.26.26 0 0 1 .008.368l-.155.158a.261.261 0 0 1-.37 0zm-1.067-1.048-.16-.156a.255.255 0 0 1-.003-.363l.155-.155c.1-.1.264-.1.366 0l.16.155c.102.1.104.262.004.363l-.155.156c-.1.1-.265.1-.367 0zm-1.055-1.035-.157-.155a.251.251 0 0 1-.001-.358l.155-.154a.26.26 0 0 1 .364 0l.157.154c.101.099.102.26.003.358l-.156.155c-.1.1-.263.1-.365 0zm-1.042-1.023L14.29 7.434a.236.236 0 0 1 .007-.342l3.202-3.018a.258.258 0 0 1 .35 0l3.202 3.018c.1.095.103.248.007.342l-3.203 3.145a.26.26 0 0 1-.363 0zm10.17 8.542 2.178-2.379c.096-.105.084-.276-.026-.38l-2.434-2.307a.262.262 0 0 0-.37 0L24.83 16.36a.273.273 0 0 0 .015.381l2.438 2.38c.11.108.281.108.38 0zm-9.808-9.553 2.186-2.134a.236.236 0 0 0-.005-.342L17.85 5.02a.258.258 0 0 0-.35 0l-2.187 2.072a.236.236 0 0 0-.005.342l2.186 2.134a.26.26 0 0 0 .361 0zm9.368 8.439-1.303-1.265a.273.273 0 0 1-.018-.38l1.166-1.242a.262.262 0 0 1 .373 0l1.302 1.241c.11.105.12.276.024.381L27.6 18.007a.263.263 0 0 1-.38 0zm-3.361-3.261-1.256-1.219a.26.26 0 0 1-.01-.368l.152-.157a.257.257 0 0 0-.01-.365l-.162-.156a.261.261 0 0 0-.367 0l-.153.156a.26.26 0 0 1-.368 0l-.16-.156a.255.255 0 0 1-.009-.363l1.169-1.183a.25.25 0 0 0-.01-.356l-.16-.153a.26.26 0 0 0-.363 0l-.659.663a.26.26 0 0 1-.364 0l-.158-.154a.249.249 0 0 1-.007-.356l1.162-1.162a.26.26 0 0 1 .36 0l.159.15a.26.26 0 0 0 .36 0l.15-.15a.26.26 0 0 1 .36 0l.16.15a.245.245 0 0 1 .013.353l-.15.152a.247.247 0 0 0 .013.354l.16.153a.25.25 0 0 1 .013.356l-.15.154a.251.251 0 0 0 .012.359l.703.67c.105.1.111.263.014.363l-.658.678a.26.26 0 0 0 .012.368l.712.687a.264.264 0 0 1 .015.372l-.154.16a.262.262 0 0 1-.371 0zm-3.77-3.657-.682-.663a.247.247 0 0 1-.004-.354l1.17-1.155a.26.26 0 0 1 .359 0l.157.15a.243.243 0 0 1 .007.35l-.659.655a.247.247 0 0 0 .006.354l.158.153a.249.249 0 0 1 .006.356l-.153.154a.26.26 0 0 1-.364 0zm-2.597-2.52-1.169-1.135a.235.235 0 0 1 .003-.342l1.17-1.114a.258.258 0 0 1 .352 0l1.17 1.114c.099.095.1.248.002.342l-1.17 1.136a.26.26 0 0 1-.359 0zm7.385 5.116-.165-.158a.26.26 0 0 1-.015-.368l1.154-1.196c.096-.1.26-.1.366 0l.164.155c.106.1.115.263.019.363l-1.154 1.204a.261.261 0 0 1-.37 0zm-.628-2.596-.161-.154a.25.25 0 0 1-.014-.356l.15-.153a.26.26 0 0 1 .362 0l.162.153a.25.25 0 0 1 .015.356l-.15.154a.26.26 0 0 1-.364 0zm-2.658-2.52-.157-.149a.24.24 0 0 1-.008-.346l.15-.148a.26.26 0 0 1 .357 0l.157.148a.24.24 0 0 1 .01.346l-.15.149a.26.26 0 0 1-.359 0z"/>
</svg>
