<svg xmlns="http://www.w3.org/2000/svg" viewBox="0 0 35.36 36.2">
  <path fill="#fff" d="m17.67 0 17.68 16.27L17.67 36.2 0 16.27Z"/>
  <path d="M17.38 30.66a.48.48 0 0 1 0-.64.38.38 0 0 1 .58 0c.16.18.16.46 0 .64a.38.38 0 0 1-.58 0zm-1.71-1.9a.47.47 0 0 1 0-.61l.3-.31.27.3c.16.18.16.46 0 .63a.38.38 0 0 1-.57 0zm-1.69-1.84-1.1-1.21a.45.45 0 0 1 .01-.6l.86-.9.83.9c.15.16.15.43-.01.6a.45.45 0 0 0-.01.6l.28.3-.3.3a.38.38 0 0 1-.56 0zm-3.27-3.6-.53-.58a.43.43 0 0 1 .02-.58c.16-.16.4-.16.55 0 .15.16.4.16.56 0a.42.42 0 0 0 .02-.58.42.42 0 0 1 .02-.57.42.42 0 0 0 .02-.57l-.8-.85 1.7-1.68.26.28c.14.15.39.15.54 0 .15-.15.4-.15.54 0 .15.15.4.15.54 0l.55-.55a.4.4 0 0 0 .01-.55l-.52-.55a.38.38 0 0 0-.54 0l-1.38 1.37-.27-.27a.4.4 0 0 1 .02-.55l1.1-1.1a.37.37 0 0 0 .02-.53l-.26-.27.27-.27a.38.38 0 0 0 .02-.53l-.26-.27.54-.52.78.79c.14.15.38.15.53 0a.38.38 0 0 0 0-.53l-.77-.79.54-.52.25.26c.15.14.38.14.53 0a.37.37 0 0 0 0-.52.37.37 0 0 0-.52 0l-.26.26-.77-.78a.37.37 0 0 0-.52 0l-.27.26-.26-.26a.36.36 0 0 1 .02-.51l1.06-1.02a.35.35 0 0 0 .01-.5.37.37 0 0 0-.51 0l-.53.5a.37.37 0 0 1-.52 0L12 9.99l1.59-1.5.25.24c.14.14.37.14.51 0a.37.37 0 0 1 .51 0c.14.14.14.37 0 .5a.35.35 0 0 0-.01.5L16.1 11l-.26.26a.36.36 0 0 0 0 .51l1.56 1.56c.15.15.14.38 0 .53l-.8.8-.52-.54.26-.26a.37.37 0 0 0 0-.53.37.37 0 0 0-.52 0 .37.37 0 0 0 0 .53l.26.26-1.35 1.34a.38.38 0 0 0 0 .54l.52.54c.14.15.39.15.54 0a.38.38 0 0 1 .53 0l.54.55c.14.15.38.15.53 0l.27-.28.27.28a.4.4 0 0 1 0 .55l-.54.55a.38.38 0 0 1-.54 0 .38.38 0 0 0-.54 0 .38.38 0 0 1-.54 0 .38.38 0 0 0-.54 0 .4.4 0 0 0-.01.56l.54.56a.4.4 0 0 1-.01.56l-.55.57a.38.38 0 0 1-.55 0l-.27-.29.28-.28a.4.4 0 0 0 0-.56.38.38 0 0 0-.54 0l-.28.28-.26-.28a.38.38 0 0 0-.55 0 .4.4 0 0 0-.01.56c.14.16.39.16.54 0l.28-.28.54.56-.84.86a.42.42 0 0 0-.02.57l.27.3-.28.28a.38.38 0 0 1-.55 0 .38.38 0 0 0-.56 0l-1.14 1.17a.38.38 0 0 1-.56 0zm-1.6-1.74-.51-.57a.42.42 0 0 1 .03-.57c.15-.16.4-.16.54 0l.53.57c.14.16.13.41-.03.57a.38.38 0 0 1-.55 0zm-1.55-1.71-3.03-3.33c-.14-.15-.12-.4.04-.54l3.39-3.2a.37.37 0 0 1 .52 0l3.04 3.2c.14.15.14.39-.02.54l-3.4 3.33a.36.36 0 0 1-.54 0zm8.12 7.66-.84-.91.29-.3a.38.38 0 0 1 .56 0 .4.4 0 0 0 .57 0 .38.38 0 0 1 .57 0l.28.3-1.15 1.22zm-7.5-8.78 2.25-2.2c.16-.16.17-.4.03-.55l-2.03-2.14a.37.37 0 0 0-.53 0L5.64 16c-.16.15-.17.4-.03.54l2.02 2.21c.14.15.38.15.54 0zM18.53 29.4l-.58-.63a.47.47 0 0 1 0-.62.46.46 0 0 0 0-.62l-.85-.91.28-.3a.45.45 0 0 0 0-.61l-1.12-1.2a.38.38 0 0 0-.56 0 .38.38 0 0 1-.56 0 .44.44 0 0 1 .01-.6.43.43 0 0 0 .01-.58l-1.36-1.46.28-.28c.16-.16.4-.16.55 0 .15.15.4.15.55 0 .16-.16.4-.16.56 0 .15.15.4.15.55 0l.55-.58a.41.41 0 0 0 0-.57.41.41 0 0 1 0-.57.4.4 0 0 1 .55 0l.55.57c.15.16.4.16.55 0l.81-.85.28.28c.15.16.4.16.55 0l1.07-1.12a.38.38 0 0 1 .54 0l1.12 1.12c.16.16.4.16.55 0l.52-.56a.38.38 0 0 1 .55 0l.28.28-.26.28a.41.41 0 0 0 .02.57l.29.29-.27.28a.38.38 0 0 1-.55 0 .38.38 0 0 0-.55 0 .38.38 0 0 1-.55 0l-.56-.57a.38.38 0 0 0-.55 0l-1.35 1.43-.84-.86a.38.38 0 0 0-.55 0 .42.42 0 0 0 0 .58l.56.57c.16.16.4.16.56 0l.27-.29.56.58-1.37 1.47a.44.44 0 0 0 0 .6l.3.29-.29.3a.38.38 0 0 1-.56 0 .38.38 0 0 0-.56 0 .44.44 0 0 0 0 .6c.16.17.16.44 0 .6a.45.45 0 0 0 0 .61.4.4 0 0 0 .58 0 .38.38 0 0 1 .56 0l.3.3-.85.93a.47.47 0 0 0 0 .62c.16.17.16.45 0 .63a.38.38 0 0 1-.57 0zm-5.06-5.48a.43.43 0 0 1 .02-.59c.16-.16.4-.16.56 0 .15.16.14.43-.02.59l-.28.3zm-3.73-4.05a.4.4 0 0 1 .03-.56c.15-.15.4-.15.54 0l.26.28-.28.28a.38.38 0 0 1-.55 0zM7.7 17.64l-1.01-1.1c-.14-.14-.12-.39.03-.54l1.13-1.07c.16-.15.4-.15.53 0L9.4 16a.4.4 0 0 1-.03.55l-1.13 1.1a.38.38 0 0 1-.54 0zm12.55 9.9-.29-.31 1.67-1.82.29.3c.16.17.16.44.01.6l-1.11 1.22a.38.38 0 0 1-.57 0zm-2.28-3.03 1.1-1.18a.43.43 0 0 0 0-.59l-1.1-1.15a.38.38 0 0 0-.56 0l-1.11 1.15a.43.43 0 0 0 0 .59l1.1 1.18c.16.17.41.17.57 0zm-.56-1.18a.43.43 0 0 1 0-.59c.15-.16.4-.16.55 0 .16.17.16.43 0 .59a.38.38 0 0 1-.55 0zm2.8 1.78-.28-.3.28-.3c.15-.16.4-.16.56 0l.29.3-.28.3a.38.38 0 0 1-.56 0zm1.13 0-.28-.3.27-.3c.15-.16.4-.16.56 0 .16.17.17.43.02.6l-.28.3zm-9.26-9.65a.38.38 0 0 1 .02-.54l.28-.26.51.53-.27.27a.37.37 0 0 1-.54 0zm-1.02-1.07a.38.38 0 0 1 .02-.53l.27-.26.51.52-.27.27a.37.37 0 0 1-.53 0zm-1.52-1.58-.5-.52a.36.36 0 0 1 .03-.52.37.37 0 0 1 .52 0l.5.52c.14.14.13.38-.02.52a.37.37 0 0 1-.53 0zm2.58 1.58-.26-.27.55-.52.51.52-.54.54zm-1.02-1.06a.37.37 0 0 1 .02-.52.37.37 0 0 1 .52 0l.26.26-.55.53zM23 24.51a.44.44 0 0 1-.01-.59.43.43 0 0 0-.02-.59l-.29-.3.27-.28c.15-.17.4-.17.56 0 .16.16.4.16.55 0 .15-.17.4-.17.56 0 .16.16.17.42.02.58l-1.08 1.18a.38.38 0 0 1-.56 0zm-1.14-1.18-.86-.88.28-.29c.15-.16.4-.16.55 0l.85.88-.27.3a.38.38 0 0 1-.55 0zm-3.91-4.02a.4.4 0 0 1 0-.56l.54-.56a.38.38 0 0 1 .54 0c.15.16.4.16.54 0a.4.4 0 0 0 0-.55l-.55-.55a.4.4 0 0 1 0-.55.39.39 0 0 0 0-.54l-.54-.54a.38.38 0 0 1 0-.53.38.38 0 0 0 0-.54.37.37 0 0 1-.01-.53l.26-.26.27.26c.15.15.38.15.53 0a.37.37 0 0 1 .52 0c.15.15.16.39.01.53l-.52.54a.38.38 0 0 0 0 .53l1.09 1.08c.15.15.39.15.53 0l.79-.8.27.26c.15.15.16.4.02.54L19.3 19.6l-.27-.28a.38.38 0 0 0-.55 0 .38.38 0 0 1-.54 0zm-5.8-5.97-.26-.27 1.08-1.04L14 13.07l-.53.53-.26-.26a.37.37 0 0 0-.53 0l-.27.26zm-1.52-1.56-.5-.52a.36.36 0 0 1 .02-.5.37.37 0 0 1 .52 0l.5.5c.14.14.13.37-.02.52a.37.37 0 0 1-.52 0zm6.78 4.76-1.07-1.08a.38.38 0 0 1 0-.53l.28-.27L17.94 16c.15.15.15.4 0 .54l-.26.28zm-6.2-6.3a.35.35 0 0 1 .02-.5.37.37 0 0 1 .52 0l.24.25-.26.25a.37.37 0 0 1-.52 0zm13.94 11.93a.42.42 0 0 1-.02-.58.42.42 0 0 0-.02-.58l-.3-.28.53-.57.3.28c.15.16.4.16.54 0a.38.38 0 0 1 .55 0c.16.16.17.42.03.57l-1.05 1.16a.38.38 0 0 1-.56 0zm-10.34-10.9a.36.36 0 0 0 .01-.52.37.37 0 0 0-.52 0 .36.36 0 0 0 0 .51c.14.14.37.14.51 0zm8.03 7.48-.56-.55a.4.4 0 0 1-.01-.56.38.38 0 0 1 .54 0c.15.15.4.15.54 0a.38.38 0 0 1 .54 0c.15.15.16.4.02.56l-.53.55a.38.38 0 0 1-.54 0zm2.22 1.13-.29-.29.26-.28a.38.38 0 0 1 .55 0c.16.16.17.4.02.57l-.26.28zm-6.6-6.54-.52-.53a.37.37 0 0 1 0-.52l.78-.77.26.26c.15.14.38.14.53 0l.25-.26.53.52-1.56 1.56zm-1.56-1.56-.78-.77.26-.26a.37.37 0 0 1 .52 0l.52.51c.14.14.14.37 0 .52a.37.37 0 0 1-.52 0zm-3.57-3.54a.34.34 0 0 1 .01-.5.37.37 0 0 1 .51 0c.14.15.14.37 0 .5l-.27.25zm8.35 7.23a.38.38 0 0 1-.01-.54l.26-.27.54.54-.52.53zm5.57 4.4-3.4-3.32a.39.39 0 0 1-.02-.54l3.04-3.2a.37.37 0 0 1 .53 0l3.39 3.2c.15.15.17.39.04.54l-3.04 3.33c-.14.15-.38.15-.54 0zm-4.5-4.4-.28-.27.78-.8a.37.37 0 0 1 .53 0c.15.14.16.38.01.53l-.51.54a.37.37 0 0 1-.53 0zm-1.1-1.07a.38.38 0 0 1 0-.53l.25-.27.27.27c.15.14.16.38.02.53l-.26.26zm-1.07-1.06a.37.37 0 0 1-.01-.52l.26-.26.53.52-.25.26a.37.37 0 0 1-.53 0zm-2.12-2.07a.36.36 0 0 1 0-.52l.51-.5a.37.37 0 0 1 .52 0l.79.76-.51.51-.27-.25a.37.37 0 0 0-.52 0l-.26.25zm-1.04-1.02-3.04-2.99a.34.34 0 0 1 0-.49l3.05-2.86a.37.37 0 0 1 .5 0l3.05 2.86c.14.14.14.36 0 .5l-3.04 2.98a.37.37 0 0 1-.52 0zm10.3 8.5 2.03-2.2c.14-.15.12-.4-.04-.55l-2.26-2.14a.37.37 0 0 0-.53 0L24.9 16a.4.4 0 0 0 .02.55l2.26 2.2c.16.16.4.16.55 0zm-6.1-5.41-.26-.26L23.39 11l.54.51-.25.26a.36.36 0 0 0 .02.51c.15.15.38.15.52 0l.25-.25.28.25c.15.15.38.15.52 0a.37.37 0 0 1 .52 0c.16.15.17.38.03.52l-.5.53a.37.37 0 0 1-.53 0 .37.37 0 0 0-.53 0 .37.37 0 0 1-.52 0 .37.37 0 0 0-.53 0 .37.37 0 0 1-.53 0 .37.37 0 0 0-.52 0l-.26.26zm-1.06-1.05-.27-.25.52-.52.26.26c.15.14.15.37.01.51l-.25.26zm-2.62-3.05 2.03-1.98a.34.34 0 0 0-.01-.49l-2.03-1.92a.37.37 0 0 0-.5 0L15.4 6.77a.34.34 0 0 0 0 .49l2.02 1.98c.14.14.38.14.52 0zm9.19 8.4-1.14-1.1a.39.39 0 0 1-.02-.54l1.01-1.07a.37.37 0 0 1 .53 0L28.64 16c.16.15.18.4.04.54l-1.01 1.1a.38.38 0 0 1-.54 0zm-6.59-6.38-.26-.25.25-.26a.37.37 0 0 1 .52 0l.27.26-.51.5zm-3.12-3.02-1.01-.98a.34.34 0 0 1 0-.49l1.02-.97a.37.37 0 0 1 .5 0l1.02.97c.14.14.14.35 0 .49l-1.02.98a.37.37 0 0 1-.5 0zm4.16 3.02-.26-.25.5-.51.27.25c.15.14.15.37.01.51a.37.37 0 0 1-.52 0zm-.02-1.02-1.05-1a.35.35 0 0 1-.01-.5.37.37 0 0 1 .51 0c.15.14.38.14.51 0l.25-.25.53.5-.25.25a.35.35 0 0 0 .01.5l.27.25-.5.5zm2.64 1.54-.27-.26.75-.77a.37.37 0 0 1 .52 0c.15.14.16.37.02.51l-.75.78zm-1.07-1.03-.8-.76.25-.25a.35.35 0 0 0-.02-.5l-.26-.25.25-.25a.37.37 0 0 1 .51 0l.53.5c.15.14.16.36.02.5a.35.35 0 0 0 .02.5c.15.14.15.37.02.51l-.26.26zm-1.62-2.5a.34.34 0 0 1 0-.5.37.37 0 0 1 .5 0c.15.13.15.36.01.5l-.25.24z"/>
</svg>