<svg xmlns="http://www.w3.org/2000/svg" fill="none" viewBox="0 0 94 61">
  <path fill="#F44250" d="M72.7 21c-2.6-1-4-.6-6.8-1-4.4-.4-6.1-2.1-6.8-6.5-.4-2.4 0-6-1-8.2-2-4.2-6.7-6-11.4-5-4 1-7.3 4.9-7.5 9a9.7 9.7 0 0 0 7 10c2.2.6 4.5 1 6.7 1.1 4.2.3 4.5 2.6 5.6 4.5.7 1.2 1.4 2.4 1.4 6 0 3.5-.7 4.7-1.4 6-1 1.8-2.5 3-6.6 3.4-2.3.1-4.6.5-6.7 1.1a9.7 9.7 0 0 0-7 10c.1 4 3.4 8 7.4 9 4.7 1 9.4-.8 11.4-5 1-2.3 1.7-4.8 2-7.2.8-4.4 2.5-6 6.9-6.5 2.8-.3 5.7 0 8.3-1.5 2.8-2 5.3-5.1 5.3-9.3 0-4.3-2.7-8.7-6.8-10Z"/>
  <path fill="#121212" d="M28.2 40.8a10 10 0 0 1 0-20 10 10 0 0 1 0 20ZM9.9 61a10 10 0 0 1 0-20 10 10 0 0 1 0 20Zm73.8 0a10 10 0 0 1-.1-20 10 10 0 0 1 .1 20Z"/>
</svg>